<svg width="25" height="26" viewBox="0 0 25 26" fill="none" xmlns="http://www.w3.org/2000/svg">
<path d="M4.528 25.2C3.97572 25.2 3.528 24.7523 3.528 24.2V0.999999C3.528 0.447714 3.97572 0 4.528 0H13.896C16.128 0 18.036 0.36 19.62 1.08C21.228 1.8 22.464 2.832 23.328 4.176C24.192 5.52 24.624 7.116 24.624 8.964C24.624 10.812 24.192 12.408 23.328 13.752C22.464 15.096 21.228 16.128 19.62 16.848C18.036 17.568 16.128 17.928 13.896 17.928H6.12L8.208 15.732V24.2C8.208 24.7523 7.76028 25.2 7.208 25.2H4.528ZM8.208 16.236L6.12 13.968H13.68C15.744 13.968 17.292 13.536 18.324 12.672C19.38 11.784 19.908 10.548 19.908 8.964C19.908 7.356 19.38 6.12 18.324 5.256C17.292 4.392 15.744 3.96 13.68 3.96H6.12L8.208 1.656V16.236Z" fill="#28292D"/>
<path d="M1 20.2C1 19.6477 1.44772 19.2 2 19.2H10C10.5523 19.2 11 19.6477 11 20.2C11 20.7523 10.5523 21.2 10 21.2H2C1.44772 21.2 1 20.7523 1 20.2Z" fill="#28292D"/>
<path d="M0 15.7C0 14.8716 0.671573 14.2 1.5 14.2H6.5C7.32843 14.2 8 14.8716 8 15.7C8 16.5284 7.32843 17.2 6.5 17.2H1.5C0.671573 17.2 0 16.5284 0 15.7Z" fill="#28292D"/>
</svg>
