<svg width="22" height="29" viewBox="0 0 22 29" fill="none" xmlns="http://www.w3.org/2000/svg">
<path d="M11.0025 0.64502C8.08447 0.64502 5.28593 1.81279 3.22256 3.89144C1.15919 5.97009 0 8.78934 0 11.729C0 19.2107 9.69597 27.6622 10.1086 28.0224C10.3577 28.2371 10.6747 28.3551 11.0025 28.3551C11.3303 28.3551 11.6474 28.2371 11.8965 28.0224C12.3778 27.6622 22.005 19.2107 22.005 11.729C22.005 8.78934 20.8458 5.97009 18.7825 3.89144C16.7191 1.81279 13.9206 0.64502 11.0025 0.64502ZM11.0025 25.099C8.0731 22.3281 2.75063 16.3566 2.75063 11.729C2.75063 9.52426 3.62002 7.40982 5.16755 5.85083C6.71508 4.29184 8.81398 3.41601 11.0025 3.41601C13.1911 3.41601 15.29 4.29184 16.8375 5.85083C18.385 7.40982 19.2544 9.52426 19.2544 11.729C19.2544 16.3566 13.9319 22.3419 11.0025 25.099ZM11.0025 6.18701C9.91447 6.18701 8.85086 6.51204 7.94618 7.121C7.0415 7.72996 6.33639 8.5955 5.92002 9.60817C5.50364 10.6208 5.39469 11.7351 5.60696 12.8102C5.81923 13.8852 6.34317 14.8727 7.11254 15.6478C7.8819 16.4228 8.86213 16.9507 9.92927 17.1645C10.9964 17.3783 12.1025 17.2686 13.1078 16.8491C14.113 16.4297 14.9722 15.7193 15.5766 14.808C16.1811 13.8966 16.5038 12.8251 16.5038 11.729C16.5038 10.2592 15.9242 8.84954 14.8925 7.81022C13.8608 6.7709 12.4615 6.18701 11.0025 6.18701ZM11.0025 14.5C10.4585 14.5 9.92669 14.3375 9.47435 14.033C9.02201 13.7285 8.66945 13.2957 8.46126 12.7894C8.25308 12.2831 8.1986 11.7259 8.30474 11.1884C8.41087 10.6509 8.67284 10.1571 9.05753 9.76961C9.44221 9.38208 9.93232 9.11817 10.4659 9.01125C10.9995 8.90433 11.5525 8.9592 12.0551 9.16893C12.5577 9.37866 12.9873 9.73383 13.2896 10.1895C13.5918 10.6452 13.7531 11.1809 13.7531 11.729C13.7531 12.4639 13.4633 13.1687 12.9475 13.6884C12.4317 14.208 11.732 14.5 11.0025 14.5Z" fill="#28292D"/>
<path fill-rule="evenodd" clip-rule="evenodd" d="M11.0025 25.099C8.0731 22.3281 2.75063 16.3566 2.75063 11.729C2.75063 9.52426 3.62002 7.40982 5.16755 5.85083C6.71508 4.29184 8.81398 3.41601 11.0025 3.41601C13.1911 3.41601 15.29 4.29184 16.8375 5.85083C18.385 7.40982 19.2544 9.52426 19.2544 11.729C19.2544 16.3566 13.9319 22.3419 11.0025 25.099ZM7.94618 7.121C8.85086 6.51204 9.91447 6.18701 11.0025 6.18701C12.4615 6.18701 13.8608 6.7709 14.8925 7.81022C15.9242 8.84954 16.5038 10.2592 16.5038 11.729C16.5038 12.8251 16.1811 13.8966 15.5766 14.808C14.9722 15.7193 14.113 16.4297 13.1078 16.8491C12.1025 17.2686 10.9964 17.3783 9.92927 17.1645C8.86213 16.9507 7.8819 16.4228 7.11254 15.6478C6.34317 14.8727 5.81923 13.8852 5.60696 12.8102C5.39469 11.7351 5.50364 10.6208 5.92002 9.60817C6.33639 8.5955 7.0415 7.72996 7.94618 7.121Z" fill="#28292D"/>
</svg>
