<svg width="34" height="34" viewBox="0 0 34 34" fill="none" xmlns="http://www.w3.org/2000/svg">
<path d="M29.75 2.83337H4.25001C3.87429 2.83337 3.51395 2.98263 3.24828 3.24831C2.9826 3.51398 2.83334 3.87432 2.83334 4.25004V29.75C2.83334 30.1258 2.9826 30.4861 3.24828 30.7518C3.51395 31.0175 3.87429 31.1667 4.25001 31.1667H29.75C30.1257 31.1667 30.4861 31.0175 30.7517 30.7518C31.0174 30.4861 31.1667 30.1258 31.1667 29.75V4.25004C31.1667 3.87432 31.0174 3.51398 30.7517 3.24831C30.4861 2.98263 30.1257 2.83337 29.75 2.83337ZM19.8333 28.3334H5.66668V18.4167H19.8333V28.3334ZM19.8333 15.5834H5.66668V5.66671H19.8333V15.5834ZM28.3333 28.3334H22.6667V5.66671H28.3333V28.3334Z" fill="#28292D"/>
</svg>